<?xml version="1.0" encoding="UTF-8"?>
<svg xmlns="http://www.w3.org/2000/svg" xmlns:xlink="http://www.w3.org/1999/xlink" width="45.27pt" height="42.52pt" viewBox="0 0 45.27 42.52" version="1.1">
<defs>
<clipPath id="clip1">
  <path d="M 0 0 L 45.269531 0 L 45.269531 42.519531 L 0 42.519531 Z M 0 0 "/>
</clipPath>
</defs>
<g id="surface1">
<g clip-path="url(#clip1)" clip-rule="nonzero">
<path style=" stroke:none;fill-rule:evenodd;fill:rgb(12.940979%,22.3526%,42.744446%);fill-opacity:1;" d="M 0 0 L 45.273438 0 L 45.273438 42.519531 L 0 42.519531 L 0 0 "/>
</g>
<path style=" stroke:none;fill-rule:nonzero;fill:rgb(97.647095%,87.841797%,0.392151%);fill-opacity:1;" d="M 22.339844 8.75 L 22.339844 6.621094 C 21.136719 5.96875 19.425781 7.640625 20.671875 8.894531 C 21.179688 8.820313 21.730469 8.769531 22.339844 8.75 Z M 18.707031 9.320313 C 18.878906 9.265625 19.0625 9.21875 19.25 9.167969 C 18.808594 8.449219 18.789063 7.691406 19.039063 7.023438 C 18.195313 7.21875 17.527344 8.246094 18.378906 9.09375 C 18.378906 9.09375 18.46875 9.171875 18.527344 9.214844 C 18.582031 9.253906 18.65625 9.292969 18.707031 9.320313 Z M 25.371094 8.894531 C 26.578125 7.644531 24.878906 5.976563 23.683594 6.621094 L 23.683594 8.75 C 24.296875 8.773438 24.855469 8.820313 25.371094 8.894531 Z M 27.347656 9.332031 C 27.394531 9.300781 27.449219 9.265625 27.492188 9.234375 C 27.554688 9.183594 27.640625 9.09375 27.640625 9.09375 C 28.496094 8.246094 27.828125 7.21875 26.984375 7.023438 C 27.234375 7.691406 27.214844 8.449219 26.773438 9.167969 C 26.972656 9.21875 27.164063 9.273438 27.347656 9.332031 Z M 23.886719 2.832031 L 23.886719 3.410156 L 23.292969 3.410156 L 23.292969 4.003906 C 23.714844 4.125 24.023438 4.503906 24.023438 4.964844 C 24.023438 5.015625 24.019531 5.066406 24.011719 5.117188 C 24.792969 5.035156 25.570313 5.332031 26.15625 5.839844 C 28.234375 5.324219 30.460938 7.996094 28.488281 9.949219 C 28.488281 9.949219 28.347656 10.089844 28.25 10.171875 C 28.167969 10.242188 28.042969 10.335938 28 10.367188 L 27.648438 11.171875 C 26.539063 10.804688 25.09375 10.449219 23.011719 10.449219 C 20.941406 10.445313 19.320313 10.820313 18.355469 11.160156 L 18.035156 10.351563 C 17.996094 10.324219 17.851563 10.222656 17.757813 10.148438 C 17.667969 10.074219 17.535156 9.949219 17.535156 9.949219 C 15.5625 7.996094 17.789063 5.324219 19.867188 5.839844 C 20.453125 5.332031 21.226563 5.035156 22.011719 5.117188 C 22.003906 5.066406 22 5.015625 22 4.964844 C 22 4.507813 22.300781 4.136719 22.714844 4.007813 L 22.714844 3.410156 L 22.140625 3.410156 L 22.140625 2.832031 L 22.714844 2.832031 L 22.714844 2.242188 L 23.292969 2.242188 L 23.292969 2.832031 L 23.886719 2.832031 "/>
<path style=" stroke:none;fill-rule:nonzero;fill:rgb(97.647095%,87.841797%,0.392151%);fill-opacity:1;" d="M 17.113281 19.953125 C 17.113281 19.890625 17.113281 11.605469 17.113281 11.605469 L 28.910156 11.605469 C 28.910156 11.605469 28.910156 19.839844 28.910156 19.953125 C 28.910156 23.210938 26.277344 25.855469 23.015625 25.855469 C 19.753906 25.855469 17.113281 23.210938 17.113281 19.953125 "/>
<path style="fill:none;stroke-width:1.82173;stroke-linecap:butt;stroke-linejoin:miter;stroke:rgb(97.647095%,87.841797%,0.392151%);stroke-opacity:1;stroke-miterlimit:3.86369;" d="M 171.132813 225.66875 C 171.132813 226.29375 171.132813 309.145313 171.132813 309.145313 L 289.101563 309.145313 C 289.101563 309.145313 289.101563 226.801563 289.101563 225.66875 C 289.101563 193.090625 262.773438 166.645313 230.15625 166.645313 C 197.539063 166.645313 171.132813 193.090625 171.132813 225.66875 Z M 171.132813 225.66875 " transform="matrix(0.1,0,0,-0.1,0,42.52)"/>
<path style=" stroke:none;fill-rule:nonzero;fill:rgb(97.647095%,87.841797%,0.392151%);fill-opacity:1;" d="M 19.371094 13.875 L 26.667969 13.875 L 26.667969 19.941406 C 26.667969 21.957031 25.035156 23.609375 23.019531 23.609375 C 21.003906 23.609375 19.371094 21.976563 19.371094 19.960938 L 19.371094 13.875 "/>
<path style=" stroke:none;fill-rule:nonzero;fill:rgb(7.798767%,25.898743%,44.299316%);fill-opacity:1;" d="M 23.101563 18.246094 L 19.570313 18.246094 L 19.570313 19.960938 C 19.570313 21.863281 21.113281 23.410156 23.019531 23.410156 C 24.921875 23.410156 26.46875 21.847656 26.46875 19.941406 L 26.46875 18.246094 L 23.101563 18.246094 "/>
<path style=" stroke:none;fill-rule:evenodd;fill:rgb(97.647095%,87.841797%,0.392151%);fill-opacity:1;" d="M 23.632813 20.359375 L 23.792969 20.34375 L 23.851563 20.261719 L 23.984375 20.234375 L 23.984375 20.082031 L 24.183594 20.304688 L 24.183594 20.847656 L 24.957031 21.609375 C 25.007813 21.648438 25.039063 21.664063 25.101563 21.671875 C 25.164063 21.683594 25.183594 21.667969 25.246094 21.648438 C 25.265625 21.648438 25.269531 21.675781 25.253906 21.699219 C 25.234375 21.730469 25.195313 21.75 25.152344 21.765625 C 25.097656 21.785156 25.046875 21.785156 25 21.773438 C 24.960938 21.761719 24.941406 21.753906 24.910156 21.730469 L 24.910156 21.957031 C 24.863281 22.042969 24.84375 22.101563 24.839844 22.203125 C 24.835938 22.304688 24.847656 22.367188 24.890625 22.457031 L 24.679688 22.722656 C 24.65625 22.714844 24.644531 22.714844 24.621094 22.722656 C 24.597656 22.730469 24.585938 22.742188 24.574219 22.761719 L 24.484375 22.6875 C 24.492188 22.664063 24.503906 22.652344 24.523438 22.644531 C 24.550781 22.632813 24.574219 22.625 24.597656 22.664063 L 24.738281 22.445313 L 24.574219 22.058594 L 24.554688 22.234375 L 24.246094 22.40625 C 24.230469 22.386719 24.210938 22.382813 24.191406 22.390625 C 24.171875 22.398438 24.160156 22.410156 24.15625 22.429688 L 24.058594 22.34375 C 24.0625 22.316406 24.078125 22.296875 24.101563 22.285156 C 24.132813 22.273438 24.171875 22.277344 24.183594 22.308594 L 24.40625 22.160156 C 24.367188 22.066406 24.332031 21.996094 24.316406 21.917969 C 24.304688 21.847656 24.308594 21.792969 24.308594 21.726563 C 24.222656 21.707031 24.175781 21.695313 24.09375 21.660156 C 24.058594 21.644531 24.0625 21.652344 24.03125 21.632813 L 24.050781 21.679688 L 23.925781 22.089844 C 23.90625 22.089844 23.890625 22.09375 23.871094 22.101563 C 23.847656 22.117188 23.828125 22.128906 23.816406 22.152344 L 23.707031 22.0625 C 23.710938 22.03125 23.722656 22.011719 23.75 22.007813 C 23.773438 22 23.792969 22.011719 23.804688 22.027344 C 23.816406 22.027344 23.820313 22.027344 23.828125 22.023438 L 23.839844 21.511719 C 23.808594 21.492188 23.789063 21.472656 23.765625 21.441406 C 23.742188 21.414063 23.730469 21.394531 23.71875 21.359375 L 23.503906 21.332031 L 23.464844 21.371094 L 23.503906 21.429688 L 23.566406 21.433594 L 23.585938 21.570313 L 23.507813 21.570313 L 23.34375 21.371094 L 23.433594 21.183594 L 23.667969 21.15625 C 23.660156 21.070313 23.664063 21.019531 23.683594 20.933594 C 23.714844 20.792969 23.824219 20.738281 23.859375 20.609375 L 23.660156 20.519531 L 23.632813 20.359375 "/>
<path style=" stroke:none;fill-rule:evenodd;fill:rgb(97.647095%,87.841797%,0.392151%);fill-opacity:1;" d="M 23 18.40625 C 23 18.40625 22.742188 18.554688 22.78125 19.066406 C 22.78125 19.066406 22.496094 18.667969 21.90625 18.761719 L 22.382813 19.171875 C 21.734375 19.09375 21.496094 19.453125 21.496094 19.453125 C 22.1875 19.359375 22.53125 19.582031 22.53125 19.582031 C 21.824219 19.527344 21.800781 20.023438 21.800781 20.023438 C 22.308594 19.699219 22.804688 20 22.804688 20 L 22.804688 21.667969 L 23.207031 21.667969 L 23.207031 20 C 23.207031 20 23.703125 19.699219 24.210938 20.023438 C 24.210938 20.023438 24.1875 19.527344 23.480469 19.582031 C 23.480469 19.582031 23.824219 19.359375 24.515625 19.453125 C 24.515625 19.453125 24.277344 19.09375 23.628906 19.171875 L 24.105469 18.761719 C 23.515625 18.667969 23.234375 19.066406 23.234375 19.066406 C 23.269531 18.554688 23.011719 18.40625 23.011719 18.40625 L 23 18.40625 "/>
<path style=" stroke:none;fill-rule:evenodd;fill:rgb(97.647095%,87.841797%,0.392151%);fill-opacity:1;" d="M 22.382813 20.359375 L 22.222656 20.34375 L 22.164063 20.261719 L 22.03125 20.234375 L 22.03125 20.082031 L 21.832031 20.304688 L 21.832031 20.847656 L 21.058594 21.609375 C 21.011719 21.648438 20.976563 21.664063 20.914063 21.671875 C 20.851563 21.683594 20.832031 21.667969 20.773438 21.648438 C 20.75 21.648438 20.746094 21.675781 20.761719 21.699219 C 20.78125 21.730469 20.820313 21.75 20.863281 21.765625 C 20.917969 21.785156 20.96875 21.785156 21.019531 21.773438 C 21.054688 21.761719 21.074219 21.753906 21.105469 21.730469 L 21.105469 21.957031 C 21.15625 22.042969 21.171875 22.101563 21.175781 22.203125 C 21.179688 22.304688 21.167969 22.367188 21.125 22.457031 L 21.335938 22.722656 C 21.359375 22.714844 21.375 22.714844 21.394531 22.722656 C 21.417969 22.730469 21.429688 22.742188 21.445313 22.761719 L 21.53125 22.6875 C 21.527344 22.664063 21.515625 22.652344 21.492188 22.644531 C 21.464844 22.632813 21.441406 22.625 21.417969 22.664063 L 21.277344 22.445313 L 21.445313 22.058594 L 21.460938 22.234375 L 21.773438 22.40625 C 21.785156 22.386719 21.804688 22.382813 21.824219 22.390625 C 21.84375 22.398438 21.855469 22.410156 21.859375 22.429688 L 21.957031 22.34375 C 21.953125 22.316406 21.941406 22.296875 21.914063 22.285156 C 21.882813 22.273438 21.84375 22.277344 21.832031 22.308594 L 21.613281 22.160156 C 21.648438 22.066406 21.683594 21.996094 21.699219 21.917969 C 21.710938 21.847656 21.710938 21.792969 21.707031 21.726563 C 21.792969 21.707031 21.84375 21.695313 21.921875 21.660156 C 21.957031 21.644531 21.953125 21.652344 21.988281 21.632813 L 21.96875 21.679688 L 22.089844 22.089844 C 22.113281 22.089844 22.125 22.09375 22.144531 22.101563 C 22.167969 22.117188 22.1875 22.128906 22.199219 22.152344 L 22.308594 22.0625 C 22.304688 22.03125 22.296875 22.011719 22.265625 22.007813 C 22.242188 22 22.222656 22.011719 22.210938 22.027344 C 22.199219 22.027344 22.195313 22.027344 22.1875 22.023438 L 22.175781 21.511719 C 22.210938 21.492188 22.226563 21.472656 22.25 21.441406 C 22.273438 21.414063 22.285156 21.394531 22.296875 21.359375 L 22.515625 21.332031 L 22.550781 21.371094 L 22.511719 21.429688 L 22.453125 21.433594 L 22.429688 21.570313 L 22.507813 21.570313 L 22.671875 21.371094 L 22.582031 21.183594 L 22.347656 21.15625 C 22.355469 21.070313 22.351563 21.019531 22.332031 20.933594 C 22.300781 20.792969 22.191406 20.738281 22.160156 20.609375 L 22.355469 20.519531 L 22.382813 20.359375 "/>
<path style=" stroke:none;fill-rule:nonzero;fill:rgb(97.647095%,87.841797%,0.392151%);fill-opacity:1;" d="M 24.6875 22.851563 L 21.335938 22.84375 L 22.808594 21.664063 L 23.207031 21.664063 L 24.6875 22.851563 "/>
<path style=" stroke:none;fill-rule:nonzero;fill:rgb(7.798767%,25.898743%,44.299316%);fill-opacity:1;" d="M 23.121094 14.078125 L 26.46875 14.078125 L 26.46875 18.046875 L 23.121094 18.046875 L 23.121094 14.078125 "/>
<path style=" stroke:none;fill-rule:nonzero;fill:rgb(7.798767%,25.898743%,44.299316%);fill-opacity:1;" d="M 19.570313 14.078125 L 22.921875 14.078125 L 22.921875 18.046875 L 19.570313 18.046875 L 19.570313 14.078125 "/>
<path style=" stroke:none;fill-rule:nonzero;fill:rgb(7.798767%,25.898743%,44.299316%);fill-opacity:1;" d="M 22.253906 25.359375 L 23.621094 24 L 23.722656 24.101563 L 22.355469 25.460938 L 22.253906 25.359375 "/>
<path style=" stroke:none;fill-rule:nonzero;fill:rgb(7.798767%,25.898743%,44.299316%);fill-opacity:1;" d="M 23.246094 24.09375 L 23.628906 24.484375 L 23.523438 24.589844 L 23.140625 24.199219 L 23.246094 24.09375 "/>
<path style=" stroke:none;fill-rule:nonzero;fill:rgb(7.798767%,25.898743%,44.299316%);fill-opacity:1;" d="M 22.410156 24 L 23.777344 25.359375 L 23.671875 25.460938 L 22.304688 24.101563 L 22.410156 24 "/>
<path style=" stroke:none;fill-rule:nonzero;fill:rgb(7.798767%,25.898743%,44.299316%);fill-opacity:1;" d="M 22.890625 24.199219 L 22.507813 24.589844 L 22.398438 24.484375 L 22.78125 24.09375 L 22.890625 24.199219 "/>
<path style=" stroke:none;fill-rule:evenodd;fill:rgb(97.647095%,87.841797%,0.392151%);fill-opacity:1;" d="M 21.246094 14.566406 L 20.882813 14.566406 L 20.882813 14.957031 L 20.472656 14.957031 L 20.472656 14.71875 L 19.726563 14.71875 L 20.097656 15.644531 L 20.367188 15.644531 L 19.792969 17.757813 L 20.757813 17.757813 L 20.882813 16.773438 L 21.609375 16.773438 L 21.730469 17.757813 L 22.699219 17.757813 L 22.125 15.644531 L 22.394531 15.644531 L 22.792969 14.71875 L 22.019531 14.71875 L 22.019531 14.957031 L 21.609375 14.957031 L 21.609375 14.566406 L 21.246094 14.566406 "/>
<path style=" stroke:none;fill-rule:evenodd;fill:rgb(97.647095%,87.841797%,0.392151%);fill-opacity:1;" d="M 23.890625 15.683594 L 24.136719 15.683594 C 24.140625 15.578125 24.125 15.511719 24.078125 15.421875 C 24.03125 15.332031 23.988281 15.289063 23.90625 15.234375 C 23.875 15.207031 23.84375 15.203125 23.808594 15.214844 C 23.757813 15.230469 23.730469 15.273438 23.738281 15.324219 C 23.703125 15.289063 23.679688 15.242188 23.691406 15.179688 C 23.695313 15.136719 23.726563 15.105469 23.769531 15.085938 C 23.753906 15.058594 23.734375 15.046875 23.703125 15.046875 C 23.675781 15.050781 23.65625 15.0625 23.644531 15.089844 C 23.625 15.035156 23.628906 14.992188 23.660156 14.945313 C 23.691406 14.902344 23.730469 14.882813 23.785156 14.882813 C 23.78125 14.859375 23.769531 14.84375 23.75 14.828125 C 23.726563 14.8125 23.703125 14.808594 23.675781 14.816406 C 23.734375 14.742188 23.828125 14.71875 23.917969 14.746094 C 24.074219 14.789063 24.066406 15.027344 24.054688 15.074219 L 24.402344 15.449219 L 24.761719 15.140625 L 24.714844 15.066406 C 24.683594 15.085938 24.667969 15.09375 24.632813 15.101563 C 24.59375 15.113281 24.574219 15.117188 24.535156 15.117188 L 24.535156 15.199219 L 24.417969 15.199219 L 24.417969 15.003906 L 24.207031 15.003906 L 24.207031 14.773438 L 24.296875 14.773438 L 24.296875 14.898438 L 24.414063 14.898438 L 24.414063 14.671875 L 24.550781 14.671875 L 24.621094 14.578125 L 24.796875 14.578125 C 24.796875 14.578125 24.824219 14.542969 24.835938 14.519531 C 24.847656 14.488281 24.847656 14.429688 24.847656 14.429688 L 25.039063 14.53125 C 25.039063 14.53125 25.066406 14.625 25.101563 14.675781 C 25.167969 14.765625 25.265625 14.742188 25.351563 14.8125 C 25.433594 14.882813 25.523438 15.023438 25.523438 15.023438 L 25.351563 15.023438 C 25.351563 15.023438 25.421875 15.0625 25.453125 15.097656 C 25.484375 15.132813 25.507813 15.203125 25.507813 15.203125 L 25.359375 15.203125 C 25.359375 15.203125 25.355469 15.421875 25.40625 15.546875 C 25.453125 15.667969 25.597656 15.820313 25.597656 15.820313 L 25.363281 15.820313 C 25.363281 15.820313 25.371094 15.890625 25.386719 15.933594 C 25.414063 15.984375 25.492188 16.046875 25.492188 16.046875 L 25.210938 16.046875 L 25.210938 16.328125 C 25.210938 16.328125 25.304688 16.367188 25.339844 16.421875 C 25.382813 16.488281 25.371094 16.601563 25.371094 16.601563 C 25.40625 16.640625 25.449219 16.65625 25.503906 16.652344 C 25.585938 16.644531 25.652344 16.589844 25.652344 16.507813 L 25.652344 15.351563 C 25.652344 15.183594 25.796875 15.042969 25.964844 15.054688 C 26.125 15.066406 26.246094 15.199219 26.242188 15.359375 C 26.292969 15.414063 26.3125 15.464844 26.304688 15.539063 C 26.289063 15.691406 26.09375 15.796875 25.960938 15.722656 C 26.023438 15.703125 26.058594 15.667969 26.074219 15.605469 C 26.09375 15.539063 26.011719 15.503906 26.027344 15.433594 C 26.039063 15.386719 26.058594 15.359375 26.101563 15.328125 C 26.085938 15.261719 26.042969 15.214844 25.972656 15.203125 C 25.886719 15.191406 25.800781 15.257813 25.796875 15.347656 L 25.796875 16.507813 C 25.792969 16.617188 25.734375 16.71875 25.625 16.78125 C 25.550781 16.820313 25.445313 16.808594 25.363281 16.777344 C 25.359375 16.878906 25.378906 16.953125 25.441406 17.027344 C 25.515625 17.109375 25.574219 17.144531 25.667969 17.171875 L 25.667969 17.824219 C 25.625 17.835938 25.597656 17.863281 25.585938 17.90625 C 25.570313 17.96875 25.601563 18.023438 25.660156 18.046875 C 25.597656 18.058594 25.539063 18.058594 25.480469 18.007813 C 25.441406 17.976563 25.421875 17.929688 25.429688 17.871094 C 25.394531 17.871094 25.367188 17.886719 25.351563 17.914063 C 25.335938 17.945313 25.335938 17.976563 25.355469 18.003906 C 25.289063 17.992188 25.25 17.960938 25.222656 17.898438 C 25.191406 17.839844 25.195313 17.789063 25.226563 17.730469 C 25.199219 17.722656 25.175781 17.722656 25.148438 17.738281 C 25.117188 17.75 25.101563 17.769531 25.09375 17.804688 C 25.054688 17.699219 25.085938 17.59375 25.175781 17.527344 C 25.265625 17.464844 25.410156 17.484375 25.453125 17.523438 L 25.425781 17.339844 C 25.34375 17.324219 25.011719 17.289063 24.878906 17.191406 C 24.828125 17.148438 24.832031 17.078125 24.832031 17 C 24.738281 16.988281 24.648438 17.003906 24.570313 17.074219 C 24.507813 17.128906 24.480469 17.179688 24.46875 17.261719 L 24.464844 17.675781 C 24.421875 17.691406 24.394531 17.71875 24.386719 17.765625 C 24.371094 17.824219 24.402344 17.882813 24.460938 17.902344 C 24.398438 17.917969 24.339844 17.914063 24.28125 17.867188 C 24.238281 17.835938 24.222656 17.785156 24.230469 17.730469 C 24.195313 17.726563 24.167969 17.742188 24.152344 17.773438 C 24.136719 17.804688 24.136719 17.832031 24.15625 17.859375 C 24.089844 17.851563 24.050781 17.816406 24.019531 17.757813 C 23.992188 17.699219 23.996094 17.648438 24.027344 17.589844 C 24 17.582031 23.980469 17.582031 23.953125 17.59375 C 23.917969 17.609375 23.902344 17.628906 23.894531 17.664063 C 23.855469 17.558594 23.886719 17.453125 23.976563 17.386719 C 24.0625 17.324219 24.203125 17.34375 24.25 17.382813 L 24.25 16.949219 C 24.214844 16.941406 24.191406 16.933594 24.164063 16.914063 C 24.132813 16.890625 24.117188 16.875 24.097656 16.839844 L 24.246094 16.722656 C 24.246094 16.722656 24.183594 16.714844 24.160156 16.683594 C 24.125 16.628906 24.125 16.570313 24.125 16.570313 L 24.78125 16.570313 L 24.78125 16.527344 C 24.644531 16.460938 24.597656 16.429688 24.480469 16.320313 C 24.414063 16.257813 24.335938 16.050781 24.328125 15.992188 C 24.296875 16.003906 24.277344 16.015625 24.25 16.035156 C 24.222656 16.0625 24.210938 16.089844 24.191406 16.113281 C 24.085938 16.015625 23.972656 15.929688 23.886719 15.902344 C 23.824219 15.882813 23.785156 15.886719 23.71875 15.898438 C 23.71875 15.882813 23.722656 15.875 23.714844 15.863281 C 23.6875 15.835938 23.671875 15.828125 23.632813 15.839844 C 23.585938 15.855469 23.5625 15.882813 23.570313 15.933594 C 23.535156 15.894531 23.511719 15.851563 23.523438 15.789063 C 23.53125 15.746094 23.558594 15.714844 23.601563 15.695313 C 23.589844 15.667969 23.566406 15.65625 23.539063 15.65625 C 23.507813 15.65625 23.488281 15.671875 23.476563 15.695313 C 23.457031 15.644531 23.460938 15.601563 23.492188 15.554688 C 23.523438 15.511719 23.5625 15.492188 23.617188 15.492188 C 23.613281 15.464844 23.601563 15.449219 23.582031 15.4375 C 23.558594 15.417969 23.535156 15.414063 23.507813 15.421875 C 23.570313 15.351563 23.660156 15.328125 23.753906 15.351563 C 23.90625 15.398438 23.902344 15.636719 23.890625 15.683594 "/>
<path style=" stroke:none;fill-rule:evenodd;fill:rgb(97.647095%,87.841797%,0.392151%);fill-opacity:1;" d="M 24.53125 14.300781 C 24.53125 14.300781 24.710938 14.257813 24.832031 14.257813 C 24.960938 14.257813 25.160156 14.300781 25.160156 14.300781 L 25.160156 14.417969 C 25.160156 14.417969 24.960938 14.375 24.832031 14.375 C 24.710938 14.375 24.53125 14.417969 24.53125 14.417969 L 24.53125 14.300781 "/>
<path style=" stroke:none;fill-rule:nonzero;fill:rgb(97.647095%,87.841797%,0.392151%);fill-opacity:1;" d="M 24.523438 14.167969 C 24.523438 14.128906 24.554688 14.097656 24.59375 14.097656 C 24.628906 14.097656 24.664063 14.128906 24.664063 14.167969 C 24.664063 14.203125 24.628906 14.234375 24.59375 14.234375 C 24.554688 14.234375 24.523438 14.203125 24.523438 14.167969 "/>
<path style=" stroke:none;fill-rule:nonzero;fill:rgb(97.647095%,87.841797%,0.392151%);fill-opacity:1;" d="M 24.757813 14.136719 C 24.757813 14.097656 24.789063 14.066406 24.828125 14.066406 C 24.867188 14.066406 24.898438 14.097656 24.898438 14.136719 C 24.898438 14.175781 24.867188 14.207031 24.828125 14.207031 C 24.789063 14.207031 24.757813 14.175781 24.757813 14.136719 "/>
<path style=" stroke:none;fill-rule:nonzero;fill:rgb(97.647095%,87.841797%,0.392151%);fill-opacity:1;" d="M 24.992188 14.167969 C 24.992188 14.128906 25.023438 14.097656 25.0625 14.097656 C 25.101563 14.097656 25.132813 14.128906 25.132813 14.167969 C 25.132813 14.203125 25.101563 14.234375 25.0625 14.234375 C 25.023438 14.234375 24.992188 14.203125 24.992188 14.167969 "/>
<path style=" stroke:none;fill-rule:nonzero;fill:rgb(7.798767%,25.898743%,44.299316%);fill-opacity:1;" d="M 17.523438 13.332031 L 18.890625 11.972656 L 18.992188 12.078125 L 17.628906 13.4375 L 17.523438 13.332031 "/>
<path style=" stroke:none;fill-rule:nonzero;fill:rgb(7.798767%,25.898743%,44.299316%);fill-opacity:1;" d="M 18.515625 12.070313 L 18.898438 12.460938 L 18.792969 12.5625 L 18.410156 12.171875 L 18.515625 12.070313 "/>
<path style=" stroke:none;fill-rule:nonzero;fill:rgb(7.798767%,25.898743%,44.299316%);fill-opacity:1;" d="M 18.941406 13.4375 L 17.574219 12.078125 L 17.679688 11.972656 L 19.046875 13.332031 L 18.941406 13.4375 "/>
<path style=" stroke:none;fill-rule:nonzero;fill:rgb(7.798767%,25.898743%,44.299316%);fill-opacity:1;" d="M 18.15625 12.171875 L 17.777344 12.566406 L 17.667969 12.460938 L 18.050781 12.070313 L 18.15625 12.171875 "/>
<path style=" stroke:none;fill-rule:nonzero;fill:rgb(7.798767%,25.898743%,44.299316%);fill-opacity:1;" d="M 27.050781 13.339844 L 28.417969 11.980469 L 28.523438 12.085938 L 27.152344 13.445313 L 27.050781 13.339844 "/>
<path style=" stroke:none;fill-rule:nonzero;fill:rgb(7.798767%,25.898743%,44.299316%);fill-opacity:1;" d="M 28.042969 12.074219 L 28.425781 12.46875 L 28.320313 12.570313 L 27.9375 12.179688 L 28.042969 12.074219 "/>
<path style=" stroke:none;fill-rule:nonzero;fill:rgb(7.798767%,25.898743%,44.299316%);fill-opacity:1;" d="M 28.46875 13.445313 L 27.101563 12.085938 L 27.207031 11.980469 L 28.574219 13.339844 L 28.46875 13.445313 "/>
<path style=" stroke:none;fill-rule:nonzero;fill:rgb(7.798767%,25.898743%,44.299316%);fill-opacity:1;" d="M 27.683594 12.179688 L 27.300781 12.570313 L 27.195313 12.46875 L 27.578125 12.074219 L 27.683594 12.179688 "/>
<path style=" stroke:none;fill-rule:nonzero;fill:rgb(7.798767%,25.898743%,44.299316%);fill-opacity:1;" d="M 17.523438 19.203125 L 18.890625 17.839844 L 18.992188 17.945313 L 17.628906 19.304688 L 17.523438 19.203125 "/>
<path style=" stroke:none;fill-rule:nonzero;fill:rgb(7.798767%,25.898743%,44.299316%);fill-opacity:1;" d="M 18.515625 17.9375 L 18.898438 18.328125 L 18.792969 18.433594 L 18.410156 18.042969 L 18.515625 17.9375 "/>
<path style=" stroke:none;fill-rule:nonzero;fill:rgb(7.798767%,25.898743%,44.299316%);fill-opacity:1;" d="M 18.941406 19.304688 L 17.574219 17.945313 L 17.679688 17.839844 L 19.046875 19.203125 L 18.941406 19.304688 "/>
<path style=" stroke:none;fill-rule:nonzero;fill:rgb(7.798767%,25.898743%,44.299316%);fill-opacity:1;" d="M 18.15625 18.042969 L 17.777344 18.433594 L 17.667969 18.328125 L 18.050781 17.9375 L 18.15625 18.042969 "/>
<path style=" stroke:none;fill-rule:nonzero;fill:rgb(7.798767%,25.898743%,44.299316%);fill-opacity:1;" d="M 27.09375 19.203125 L 28.460938 17.839844 L 28.566406 17.945313 L 27.199219 19.304688 L 27.09375 19.203125 "/>
<path style=" stroke:none;fill-rule:nonzero;fill:rgb(7.798767%,25.898743%,44.299316%);fill-opacity:1;" d="M 28.089844 17.9375 L 28.472656 18.328125 L 28.367188 18.433594 L 27.984375 18.042969 L 28.089844 17.9375 "/>
<path style=" stroke:none;fill-rule:nonzero;fill:rgb(7.798767%,25.898743%,44.299316%);fill-opacity:1;" d="M 28.515625 19.304688 L 27.148438 17.945313 L 27.253906 17.839844 L 28.621094 19.203125 L 28.515625 19.304688 "/>
<path style=" stroke:none;fill-rule:nonzero;fill:rgb(7.798767%,25.898743%,44.299316%);fill-opacity:1;" d="M 27.730469 18.042969 L 27.347656 18.433594 L 27.242188 18.328125 L 27.625 17.9375 L 27.730469 18.042969 "/>
<path style=" stroke:none;fill-rule:nonzero;fill:rgb(100%,93.699646%,0.39978%);fill-opacity:1;" d="M 10.199219 32.96875 C 10.015625 33.0625 9.605469 33.160156 9.070313 33.160156 C 7.542969 33.160156 6.757813 32.210938 6.757813 30.953125 C 6.757813 29.449219 7.832031 28.609375 9.167969 28.609375 C 9.683594 28.609375 10.078125 28.714844 10.253906 28.804688 L 10.050781 29.597656 C 9.847656 29.511719 9.566406 29.433594 9.210938 29.433594 C 8.417969 29.433594 7.804688 29.914063 7.804688 30.894531 C 7.804688 31.777344 8.328125 32.335938 9.21875 32.335938 C 9.519531 32.335938 9.855469 32.269531 10.050781 32.191406 L 10.199219 32.96875 "/>
<path style=" stroke:none;fill-rule:nonzero;fill:rgb(100%,93.699646%,0.39978%);fill-opacity:1;" d="M 12.578125 33.09375 L 12.515625 32.773438 L 12.496094 32.773438 C 12.289063 33.027344 11.960938 33.167969 11.582031 33.167969 C 10.933594 33.167969 10.546875 32.695313 10.546875 32.183594 C 10.546875 31.351563 11.292969 30.953125 12.425781 30.960938 L 12.425781 30.914063 C 12.425781 30.746094 12.335938 30.503906 11.84375 30.503906 C 11.515625 30.503906 11.167969 30.613281 10.960938 30.746094 L 10.777344 30.101563 C 11 29.976563 11.4375 29.820313 12.019531 29.820313 C 13.085938 29.820313 13.425781 30.449219 13.425781 31.203125 L 13.425781 32.316406 C 13.425781 32.621094 13.441406 32.917969 13.472656 33.09375 Z M 12.457031 31.582031 C 11.933594 31.574219 11.527344 31.699219 11.527344 32.085938 C 11.527344 32.339844 11.699219 32.464844 11.921875 32.464844 C 12.171875 32.464844 12.371094 32.300781 12.4375 32.097656 C 12.453125 32.046875 12.457031 31.988281 12.457031 31.929688 L 12.457031 31.582031 "/>
<path style=" stroke:none;fill-rule:nonzero;fill:rgb(100%,93.699646%,0.39978%);fill-opacity:1;" d="M 14.1875 33.09375 C 14.199219 32.882813 14.210938 32.5 14.210938 32.136719 L 14.210938 28.445313 L 15.207031 28.445313 L 15.207031 30.273438 L 15.21875 30.273438 C 15.410156 29.996094 15.742188 29.820313 16.1875 29.820313 C 16.953125 29.820313 17.519531 30.457031 17.511719 31.4375 C 17.511719 32.589844 16.777344 33.167969 16.042969 33.167969 C 15.671875 33.167969 15.3125 33.027344 15.082031 32.648438 L 15.070313 32.648438 L 15.03125 33.09375 Z M 15.207031 31.734375 C 15.207031 31.796875 15.214844 31.855469 15.226563 31.910156 C 15.292969 32.179688 15.519531 32.378906 15.808594 32.378906 C 16.234375 32.378906 16.496094 32.054688 16.496094 31.476563 C 16.496094 30.980469 16.273438 30.585938 15.808594 30.585938 C 15.539063 30.585938 15.292969 30.789063 15.226563 31.078125 C 15.214844 31.136719 15.207031 31.195313 15.207031 31.261719 L 15.207031 31.734375 "/>
<path style=" stroke:none;fill-rule:nonzero;fill:rgb(100%,93.699646%,0.39978%);fill-opacity:1;" d="M 19.152344 29.003906 C 19.152344 29.277344 18.945313 29.5 18.617188 29.5 C 18.300781 29.5 18.09375 29.277344 18.097656 29.003906 C 18.09375 28.714844 18.300781 28.5 18.625 28.5 C 18.945313 28.5 19.148438 28.714844 19.152344 29.003906 Z M 18.125 33.09375 L 18.125 29.894531 L 19.121094 29.894531 L 19.121094 33.09375 L 18.125 33.09375 "/>
<path style=" stroke:none;fill-rule:nonzero;fill:rgb(100%,93.699646%,0.39978%);fill-opacity:1;" d="M 19.917969 28.445313 L 20.914063 28.445313 L 20.914063 33.09375 L 19.917969 33.09375 L 19.917969 28.445313 "/>
<path style=" stroke:none;fill-rule:nonzero;fill:rgb(100%,93.699646%,0.39978%);fill-opacity:1;" d="M 24.820313 28.445313 L 24.820313 32.136719 C 24.820313 32.5 24.835938 32.878906 24.847656 33.09375 L 23.964844 33.09375 L 23.917969 32.621094 L 23.90625 32.621094 C 23.703125 32.984375 23.316406 33.167969 22.902344 33.167969 C 22.144531 33.167969 21.535156 32.519531 21.535156 31.523438 C 21.527344 30.441406 22.203125 29.820313 22.96875 29.820313 C 23.363281 29.820313 23.667969 29.957031 23.8125 30.179688 L 23.828125 30.179688 L 23.828125 28.445313 Z M 23.828125 31.25 C 23.828125 31.195313 23.820313 31.125 23.8125 31.070313 C 23.753906 30.804688 23.539063 30.582031 23.230469 30.582031 C 22.78125 30.582031 22.542969 30.988281 22.542969 31.492188 C 22.542969 32.035156 22.8125 32.375 23.222656 32.375 C 23.511719 32.375 23.742188 32.179688 23.800781 31.894531 C 23.820313 31.824219 23.828125 31.753906 23.828125 31.667969 L 23.828125 31.25 "/>
<path style=" stroke:none;fill-rule:nonzero;fill:rgb(100%,93.699646%,0.39978%);fill-opacity:1;" d="M 28.78125 31.457031 C 28.78125 32.628906 27.949219 33.167969 27.09375 33.167969 C 26.15625 33.167969 25.4375 32.550781 25.4375 31.515625 C 25.4375 30.480469 26.117188 29.820313 27.144531 29.820313 C 28.125 29.820313 28.78125 30.496094 28.78125 31.457031 Z M 26.464844 31.492188 C 26.464844 32.039063 26.691406 32.453125 27.117188 32.453125 C 27.503906 32.453125 27.753906 32.066406 27.753906 31.492188 C 27.753906 31.011719 27.570313 30.527344 27.117188 30.527344 C 26.640625 30.527344 26.464844 31.019531 26.464844 31.492188 "/>
<path style=" stroke:none;fill-rule:nonzero;fill:rgb(100%,93.699646%,0.39978%);fill-opacity:1;" d="M 33.820313 28.445313 L 33.820313 32.136719 C 33.820313 32.5 33.832031 32.878906 33.847656 33.09375 L 32.964844 33.09375 L 32.917969 32.621094 L 32.902344 32.621094 C 32.703125 32.984375 32.316406 33.167969 31.902344 33.167969 C 31.144531 33.167969 30.535156 32.519531 30.535156 31.523438 C 30.527344 30.441406 31.203125 29.820313 31.96875 29.820313 C 32.359375 29.820313 32.667969 29.957031 32.8125 30.179688 L 32.824219 30.179688 L 32.824219 28.445313 Z M 32.824219 31.25 C 32.824219 31.195313 32.820313 31.125 32.8125 31.070313 C 32.753906 30.804688 32.539063 30.582031 32.230469 30.582031 C 31.777344 30.582031 31.542969 30.988281 31.542969 31.492188 C 31.542969 32.035156 31.8125 32.375 32.222656 32.375 C 32.511719 32.375 32.742188 32.179688 32.800781 31.894531 C 32.820313 31.824219 32.824219 31.753906 32.824219 31.667969 L 32.824219 31.25 "/>
<path style=" stroke:none;fill-rule:nonzero;fill:rgb(100%,93.699646%,0.39978%);fill-opacity:1;" d="M 35.382813 31.8125 C 35.417969 32.222656 35.824219 32.421875 36.289063 32.421875 C 36.628906 32.421875 36.902344 32.375 37.171875 32.289063 L 37.300781 32.964844 C 36.976563 33.09375 36.574219 33.160156 36.144531 33.160156 C 35.058594 33.160156 34.433594 32.53125 34.433594 31.53125 C 34.433594 30.71875 34.9375 29.820313 36.050781 29.820313 C 37.085938 29.820313 37.480469 30.625 37.480469 31.417969 C 37.480469 31.589844 37.460938 31.738281 37.445313 31.8125 Z M 36.554688 31.128906 C 36.554688 30.886719 36.453125 30.480469 35.992188 30.480469 C 35.574219 30.480469 35.402344 30.863281 35.378906 31.128906 L 36.554688 31.128906 "/>
<path style=" stroke:none;fill-rule:nonzero;fill:rgb(100%,93.699646%,0.39978%);fill-opacity:1;" d="M 7.96875 38.429688 C 7.660156 38.535156 7.078125 38.679688 6.496094 38.679688 C 5.691406 38.679688 5.109375 38.476563 4.703125 38.082031 C 4.296875 37.703125 4.074219 37.125 4.082031 36.480469 C 4.085938 35.011719 5.152344 34.175781 6.601563 34.175781 C 7.171875 34.175781 7.609375 34.285156 7.824219 34.390625 L 7.613281 35.1875 C 7.375 35.085938 7.074219 35 6.585938 35 C 5.757813 35 5.128906 35.46875 5.128906 36.425781 C 5.128906 37.335938 5.699219 37.871094 6.515625 37.871094 C 6.746094 37.871094 6.929688 37.847656 7.007813 37.808594 L 7.007813 36.882813 L 6.324219 36.882813 L 6.324219 36.105469 L 7.96875 36.105469 L 7.96875 38.429688 "/>
<path style=" stroke:none;fill-rule:nonzero;fill:rgb(100%,93.699646%,0.39978%);fill-opacity:1;" d="M 8.734375 36.484375 C 8.734375 36.015625 8.71875 35.707031 8.707031 35.429688 L 9.566406 35.429688 L 9.597656 36.019531 L 9.625 36.019531 C 9.789063 35.554688 10.179688 35.359375 10.488281 35.359375 C 10.578125 35.359375 10.625 35.359375 10.699219 35.371094 L 10.699219 36.308594 C 10.625 36.296875 10.539063 36.28125 10.429688 36.28125 C 10.0625 36.28125 9.8125 36.480469 9.75 36.785156 C 9.734375 36.851563 9.730469 36.929688 9.730469 37.007813 L 9.730469 38.632813 L 8.734375 38.632813 L 8.734375 36.484375 "/>
<path style=" stroke:none;fill-rule:nonzero;fill:rgb(100%,93.699646%,0.39978%);fill-opacity:1;" d="M 12.96875 38.632813 L 12.910156 38.3125 L 12.890625 38.3125 C 12.679688 38.566406 12.351563 38.703125 11.972656 38.703125 C 11.324219 38.703125 10.941406 38.234375 10.941406 37.722656 C 10.941406 36.890625 11.683594 36.492188 12.820313 36.5 L 12.820313 36.453125 C 12.820313 36.28125 12.726563 36.039063 12.234375 36.039063 C 11.90625 36.039063 11.5625 36.152344 11.351563 36.28125 L 11.167969 35.640625 C 11.390625 35.515625 11.828125 35.359375 12.410156 35.359375 C 13.480469 35.359375 13.820313 35.988281 13.820313 36.742188 L 13.820313 37.851563 C 13.820313 38.160156 13.832031 38.457031 13.867188 38.632813 Z M 12.851563 37.121094 C 12.328125 37.113281 11.921875 37.238281 11.921875 37.625 C 11.921875 37.878906 12.089844 38.003906 12.3125 38.003906 C 12.5625 38.003906 12.765625 37.839844 12.832031 37.636719 C 12.84375 37.585938 12.851563 37.527344 12.851563 37.46875 L 12.851563 37.121094 "/>
<path style=" stroke:none;fill-rule:nonzero;fill:rgb(100%,93.699646%,0.39978%);fill-opacity:1;" d="M 14.605469 36.453125 C 14.605469 36.054688 14.589844 35.710938 14.578125 35.429688 L 15.441406 35.429688 L 15.488281 35.871094 L 15.507813 35.871094 C 15.640625 35.667969 15.964844 35.359375 16.496094 35.359375 C 17.152344 35.359375 17.640625 35.792969 17.640625 36.734375 L 17.640625 38.632813 L 16.648438 38.632813 L 16.648438 36.859375 C 16.648438 36.445313 16.503906 36.164063 16.144531 36.164063 C 15.867188 36.164063 15.703125 36.355469 15.640625 36.539063 C 15.613281 36.597656 15.597656 36.695313 15.597656 36.785156 L 15.597656 38.632813 L 14.605469 38.632813 L 14.605469 36.453125 "/>
<path style=" stroke:none;fill-rule:nonzero;fill:rgb(100%,93.699646%,0.39978%);fill-opacity:1;" d="M 23.035156 38.507813 C 22.851563 38.601563 22.441406 38.699219 21.902344 38.699219 C 20.378906 38.699219 19.59375 37.75 19.59375 36.492188 C 19.59375 34.984375 20.664063 34.148438 22 34.148438 C 22.519531 34.148438 22.910156 34.253906 23.085938 34.34375 L 22.882813 35.136719 C 22.679688 35.050781 22.398438 34.972656 22.046875 34.972656 C 21.253906 34.972656 20.640625 35.449219 20.640625 36.433594 C 20.640625 37.316406 21.164063 37.871094 22.050781 37.871094 C 22.355469 37.871094 22.6875 37.808594 22.882813 37.730469 L 23.035156 38.507813 "/>
<path style=" stroke:none;fill-rule:nonzero;fill:rgb(100%,93.699646%,0.39978%);fill-opacity:1;" d="M 25.410156 38.632813 L 25.351563 38.3125 L 25.332031 38.3125 C 25.121094 38.566406 24.796875 38.703125 24.414063 38.703125 C 23.769531 38.703125 23.382813 38.234375 23.382813 37.722656 C 23.382813 36.890625 24.128906 36.492188 25.257813 36.5 L 25.257813 36.453125 C 25.257813 36.28125 25.167969 36.039063 24.675781 36.039063 C 24.351563 36.039063 24.003906 36.152344 23.792969 36.28125 L 23.609375 35.640625 C 23.832031 35.515625 24.269531 35.359375 24.855469 35.359375 C 25.921875 35.359375 26.261719 35.988281 26.261719 36.742188 L 26.261719 37.851563 C 26.261719 38.160156 26.273438 38.457031 26.308594 38.632813 Z M 25.292969 37.121094 C 24.769531 37.113281 24.363281 37.238281 24.363281 37.625 C 24.363281 37.878906 24.53125 38.003906 24.753906 38.003906 C 25.003906 38.003906 25.207031 37.839844 25.273438 37.636719 C 25.285156 37.585938 25.292969 37.527344 25.292969 37.46875 L 25.292969 37.121094 "/>
<path style=" stroke:none;fill-rule:nonzero;fill:rgb(100%,93.699646%,0.39978%);fill-opacity:1;" d="M 27.046875 36.453125 C 27.046875 36.054688 27.03125 35.710938 27.019531 35.429688 L 27.882813 35.429688 L 27.929688 35.871094 L 27.949219 35.871094 C 28.082031 35.667969 28.40625 35.359375 28.9375 35.359375 C 29.59375 35.359375 30.082031 35.792969 30.082031 36.734375 L 30.082031 38.632813 L 29.089844 38.632813 L 29.089844 36.859375 C 29.089844 36.445313 28.945313 36.164063 28.585938 36.164063 C 28.308594 36.164063 28.144531 36.355469 28.082031 36.539063 C 28.054688 36.597656 28.042969 36.695313 28.042969 36.785156 L 28.042969 38.632813 L 27.046875 38.632813 L 27.046875 36.453125 "/>
<path style=" stroke:none;fill-rule:nonzero;fill:rgb(100%,93.699646%,0.39978%);fill-opacity:1;" d="M 32.703125 38.632813 L 32.640625 38.3125 L 32.621094 38.3125 C 32.414063 38.566406 32.085938 38.703125 31.707031 38.703125 C 31.058594 38.703125 30.671875 38.234375 30.671875 37.722656 C 30.671875 36.890625 31.417969 36.492188 32.550781 36.5 L 32.550781 36.453125 C 32.550781 36.28125 32.457031 36.039063 31.96875 36.039063 C 31.640625 36.039063 31.292969 36.152344 31.085938 36.28125 L 30.902344 35.640625 C 31.125 35.515625 31.5625 35.359375 32.144531 35.359375 C 33.210938 35.359375 33.550781 35.988281 33.550781 36.742188 L 33.550781 37.851563 C 33.550781 38.160156 33.566406 38.457031 33.597656 38.632813 Z M 32.582031 37.121094 C 32.058594 37.113281 31.652344 37.238281 31.652344 37.625 C 31.652344 37.878906 31.824219 38.003906 32.046875 38.003906 C 32.296875 38.003906 32.5 37.839844 32.5625 37.636719 C 32.578125 37.585938 32.582031 37.527344 32.582031 37.46875 L 32.582031 37.121094 "/>
<path style=" stroke:none;fill-rule:nonzero;fill:rgb(100%,93.699646%,0.39978%);fill-opacity:1;" d="M 34.335938 36.484375 C 34.335938 36.015625 34.324219 35.707031 34.3125 35.429688 L 35.167969 35.429688 L 35.199219 36.019531 L 35.226563 36.019531 C 35.390625 35.554688 35.785156 35.359375 36.089844 35.359375 C 36.183594 35.359375 36.230469 35.359375 36.300781 35.371094 L 36.300781 36.308594 C 36.230469 36.296875 36.144531 36.28125 36.03125 36.28125 C 35.667969 36.28125 35.417969 36.480469 35.351563 36.785156 C 35.339844 36.851563 35.332031 36.929688 35.332031 37.007813 L 35.332031 38.632813 L 34.335938 38.632813 L 34.335938 36.484375 "/>
<path style=" stroke:none;fill-rule:nonzero;fill:rgb(100%,93.699646%,0.39978%);fill-opacity:1;" d="M 37.851563 34.539063 C 37.851563 34.816406 37.640625 35.039063 37.316406 35.039063 C 37 35.039063 36.792969 34.816406 36.796875 34.539063 C 36.792969 34.253906 37 34.035156 37.320313 34.035156 C 37.640625 34.035156 37.84375 34.253906 37.851563 34.539063 Z M 36.824219 38.632813 L 36.824219 35.429688 L 37.820313 35.429688 L 37.820313 38.632813 L 36.824219 38.632813 "/>
<path style=" stroke:none;fill-rule:nonzero;fill:rgb(100%,93.699646%,0.39978%);fill-opacity:1;" d="M 40.4375 38.632813 L 40.378906 38.3125 L 40.359375 38.3125 C 40.148438 38.566406 39.820313 38.703125 39.441406 38.703125 C 38.792969 38.703125 38.40625 38.234375 38.40625 37.722656 C 38.40625 36.890625 39.152344 36.492188 40.285156 36.5 L 40.285156 36.453125 C 40.285156 36.28125 40.195313 36.039063 39.703125 36.039063 C 39.375 36.039063 39.03125 36.152344 38.820313 36.28125 L 38.636719 35.640625 C 38.859375 35.515625 39.296875 35.359375 39.878906 35.359375 C 40.949219 35.359375 41.289063 35.988281 41.289063 36.742188 L 41.289063 37.851563 C 41.289063 38.160156 41.300781 38.457031 41.335938 38.632813 Z M 40.320313 37.121094 C 39.796875 37.113281 39.390625 37.238281 39.390625 37.625 C 39.390625 37.878906 39.558594 38.003906 39.78125 38.003906 C 40.03125 38.003906 40.234375 37.839844 40.300781 37.636719 C 40.3125 37.585938 40.320313 37.527344 40.320313 37.46875 L 40.320313 37.121094 "/>
</g>
</svg>
